<?xml version="1.0" standalone="no"?><!DOCTYPE svg PUBLIC "-//W3C//DTD SVG 1.1//EN" "http://www.w3.org/Graphics/SVG/1.1/DTD/svg11.dtd"><svg class="icon" height="512" viewBox="0 0 1024 1024" version="1.1" xmlns="http://www.w3.org/2000/svg"><path d="M384 630.016a32 32 0 1 0 0 64 32 32 0 0 0 0-64zM640 630.016a32 32 0 1 0 0 64 32 32 0 0 0 0-64z" fill="#333333" /><path d="M512 1024c-229.376 0-416-142.784-416-318.304s186.624-318.336 416-318.336 416 142.816 416 318.336S741.376 1024 512 1024z m0-572.64c-194.08 0-352 114.08-352 254.336S317.92 960 512 960s352-114.08 352-254.304-157.92-254.336-352-254.336z" fill="#333333" /><path d="M263.328 511.36c-12.064 0-23.648-6.848-29.088-18.528-25.152-54.144-44.32-114.592-56.928-179.68a953.536 953.536 0 0 1-15.936-132.544l-0.256-5.184c-2.144-42.272-4.608-90.24 27.936-131.776 2.784-3.52 5.76-6.944 8.928-10.144C230.336 0.256 281.44-9.504 319.36 10.368c27.84 14.56 47.936 43.52 55.136 79.456 6.176 30.656 3.168 62.144 0.544 89.888l-0.352 3.36c-8.96 93.76-8.96 178.176-0.064 258.08a32 32 0 0 1-63.616 7.04c-9.376-84.288-9.376-172.992 0-271.168l0.32-3.392c2.336-24.48 4.736-49.792 0.416-71.2-3.264-16.448-11.712-29.952-22.08-35.36-13.024-6.88-33.28-1.856-46.016 11.2-1.6 1.664-2.976 3.2-4.256 4.864-17.792 22.72-16.192 53.44-14.4 89.024l0.288 5.216c2.08 41.92 7.104 83.52 14.816 123.616 11.616 59.968 29.184 115.424 52.16 164.864a32 32 0 0 1-28.96 45.472zM760.576 511.616a31.936 31.936 0 0 1-28.992-45.504c23.04-49.44 40.608-105.024 52.288-165.12 7.712-40.096 12.736-81.664 14.816-123.616l0.288-5.216c1.792-35.584 3.392-66.336-14.4-89.024-1.28-1.664-2.624-3.2-4.096-4.704-12.928-13.216-33.12-18.176-46.208-11.36-10.336 5.408-18.784 18.912-22.08 35.328-4.288 21.44-1.888 46.72 0.48 71.232l0.32 3.392c9.216 96.96 9.312 184.544 0.352 267.744a32 32 0 1 1-63.616-6.88c8.48-78.816 8.352-162.176-0.448-254.816l-0.32-3.36c-2.656-27.744-5.664-59.2 0.512-89.92 7.2-35.904 27.264-64.864 55.136-79.424 37.952-19.872 89.152-10.08 121.6 23.296 2.976 3.04 5.952 6.432 8.736 9.984 32.544 41.536 30.08 89.504 27.936 131.776l-0.256 5.152a952.448 952.448 0 0 1-15.936 132.544c-12.672 65.28-31.84 125.824-57.088 180a32 32 0 0 1-29.024 18.496zM512 832a32 32 0 0 1-32-32v-32a32 32 0 1 1 64 0v32a32 32 0 0 1-32 32z" fill="#333333" /><path d="M464 860.576a77.952 77.952 0 0 1-55.488-23.04 16 16 0 1 1 22.624-22.592c17.536 17.6 48.192 17.6 65.728 0a16 16 0 1 1 22.624 22.624 77.952 77.952 0 0 1-55.488 23.008z" fill="#333333" /><path d="M464 860.576a77.952 77.952 0 0 1-55.488-23.04 16 16 0 1 1 22.624-22.592c17.536 17.6 48.192 17.6 65.728 0a16 16 0 1 1 22.624 22.624 77.952 77.952 0 0 1-55.488 23.008z" fill="#333333" /><path d="M560 860.576a77.952 77.952 0 0 1-55.488-23.04 16 16 0 1 1 22.624-22.592c17.536 17.6 48.192 17.6 65.728 0a16 16 0 1 1 22.624 22.624 77.952 77.952 0 0 1-55.488 23.008z" fill="#333333" /><path d="M560 860.576a77.952 77.952 0 0 1-55.488-23.04 16 16 0 1 1 22.624-22.592c17.536 17.6 48.192 17.6 65.728 0a16 16 0 1 1 22.624 22.624 77.952 77.952 0 0 1-55.488 23.008z" fill="#333333" /></svg>